<svg width="11" height="13" viewBox="0 0 11 13" fill="none" xmlns="http://www.w3.org/2000/svg">
<path d="M10.9972 6.49511L10.6424 10.4892C10.5517 11.5226 8.88519 11.3804 8.97593 10.3648L9.25093 7.25432L8.12069 7.31272C8.39844 7.83832 8.55519 8.4274 8.55519 9.05203C8.55519 10.0982 8.11244 11.0503 7.39195 11.7562L6.3112 10.7583C7.90344 9.1409 6.67145 6.51289 4.27622 6.51289C3.56397 6.51289 2.91498 6.76426 2.42823 7.17306L1.34749 6.17518C1.95249 5.64958 2.72523 5.28395 3.58597 5.15445L5.65671 2.97841L4.48522 2.3487L3.06623 3.51671C2.24123 4.19719 1.12474 3.04697 1.95249 2.36394L3.82247 0.822681C4.09197 0.599237 4.48522 0.563689 4.79872 0.731272C4.79872 0.731272 8.62944 2.78543 8.63494 2.79051C9.08043 3.04697 9.20418 3.7046 8.80269 4.1261L7.1967 5.81463L10.1144 5.66482C10.6232 5.63689 11.0384 6.03045 10.9972 6.49511ZM9.21243 2.58484C9.98518 2.58484 10.6122 2.00592 10.6122 1.29242C10.6122 0.578923 9.98518 0 9.21243 0C8.43969 0 7.81269 0.578923 7.81269 1.29242C7.81269 2.00592 8.43969 2.58484 9.21243 2.58484ZM4.27897 11.5912C2.06249 11.5912 0.775494 9.2907 2.00474 7.62757L0.912993 6.61953C0.340998 7.28733 0 8.13286 0 9.04949C0 12.3681 4.14422 14.1633 6.91345 12.1599L5.82171 11.1519C5.38171 11.4287 4.85097 11.5912 4.27897 11.5912Z" fill="white"/>
</svg>
