<svg width="154" height="20" viewBox="0 0 154 20" fill="none" xmlns="http://www.w3.org/2000/svg">
<path d="M14.1953 19H10.5742V11.6055H3.78906V19H0.15625V1.86719H3.78906V8.58203H10.5742V1.86719H14.1953V19ZM21.0977 12.4258C21.0977 13.7227 21.3086 14.7031 21.7305 15.3672C22.1602 16.0312 22.8555 16.3633 23.8164 16.3633C24.7695 16.3633 25.4531 16.0352 25.8672 15.3789C26.2891 14.7148 26.5 13.7305 26.5 12.4258C26.5 11.1289 26.2891 10.1562 25.8672 9.50781C25.4453 8.85938 24.7539 8.53516 23.793 8.53516C22.8398 8.53516 22.1523 8.85938 21.7305 9.50781C21.3086 10.1484 21.0977 11.1211 21.0977 12.4258ZM30.1562 12.4258C30.1562 14.5586 29.5938 16.2266 28.4688 17.4297C27.3438 18.6328 25.7773 19.2344 23.7695 19.2344C22.5117 19.2344 21.4023 18.9609 20.4414 18.4141C19.4805 17.8594 18.7422 17.0664 18.2266 16.0352C17.7109 15.0039 17.4531 13.8008 17.4531 12.4258C17.4531 10.2852 18.0117 8.62109 19.1289 7.43359C20.2461 6.24609 21.8164 5.65234 23.8398 5.65234C25.0977 5.65234 26.207 5.92578 27.168 6.47266C28.1289 7.01953 28.8672 7.80469 29.3828 8.82812C29.8984 9.85156 30.1562 11.0508 30.1562 12.4258ZM38.6289 16.3867C39.2539 16.3867 40.0039 16.25 40.8789 15.9766V18.6367C39.9883 19.0352 38.8945 19.2344 37.5977 19.2344C36.168 19.2344 35.125 18.875 34.4688 18.1562C33.8203 17.4297 33.4961 16.3438 33.4961 14.8984V8.58203H31.7852V7.07031L33.7539 5.875L34.7852 3.10938H37.0703V5.89844H40.7383V8.58203H37.0703V14.8984C37.0703 15.4062 37.2109 15.7812 37.4922 16.0234C37.7812 16.2656 38.1602 16.3867 38.6289 16.3867ZM48.9648 8.19531C48.207 8.19531 47.6133 8.4375 47.1836 8.92188C46.7539 9.39844 46.5078 10.0781 46.4453 10.9609H51.4609C51.4453 10.0781 51.2148 9.39844 50.7695 8.92188C50.3242 8.4375 49.7227 8.19531 48.9648 8.19531ZM49.4688 19.2344C47.3594 19.2344 45.7109 18.6523 44.5234 17.4883C43.3359 16.3242 42.7422 14.6758 42.7422 12.543C42.7422 10.3477 43.2891 8.65234 44.3828 7.45703C45.4844 6.25391 47.0039 5.65234 48.9414 5.65234C50.793 5.65234 52.2344 6.17969 53.2656 7.23438C54.2969 8.28906 54.8125 9.74609 54.8125 11.6055V13.3398H46.3633C46.4023 14.3555 46.7031 15.1484 47.2656 15.7188C47.8281 16.2891 48.6172 16.5742 49.6328 16.5742C50.4219 16.5742 51.168 16.4922 51.8711 16.3281C52.5742 16.1641 53.3086 15.9023 54.0742 15.543V18.3086C53.4492 18.6211 52.7812 18.8516 52.0703 19C51.3594 19.1562 50.4922 19.2344 49.4688 19.2344ZM61.293 19H57.7188V0.765625H61.293V19ZM72.5898 19L68.4648 5.55859H68.3594C68.5078 8.29297 68.582 10.1172 68.582 11.0312V19H65.3359V1.86719H70.2812L74.3359 14.9688H74.4062L78.707 1.86719H83.6523V19H80.2656V10.8906C80.2656 10.5078 80.2695 10.0664 80.2773 9.56641C80.293 9.06641 80.3477 7.73828 80.4414 5.58203H80.3359L75.918 19H72.5898ZM96.0156 19L95.3242 17.2188H95.2305C94.6289 17.9766 94.0078 18.5039 93.3672 18.8008C92.7344 19.0898 91.9062 19.2344 90.8828 19.2344C89.625 19.2344 88.6328 18.875 87.9062 18.1562C87.1875 17.4375 86.8281 16.4141 86.8281 15.0859C86.8281 13.6953 87.3125 12.6719 88.2812 12.0156C89.2578 11.3516 90.7266 10.9844 92.6875 10.9141L94.9609 10.8438V10.2695C94.9609 8.94141 94.2812 8.27734 92.9219 8.27734C91.875 8.27734 90.6445 8.59375 89.2305 9.22656L88.0469 6.8125C89.5547 6.02344 91.2266 5.62891 93.0625 5.62891C94.8203 5.62891 96.168 6.01172 97.1055 6.77734C98.043 7.54297 98.5117 8.70703 98.5117 10.2695V19H96.0156ZM94.9609 12.9297L93.5781 12.9766C92.5391 13.0078 91.7656 13.1953 91.2578 13.5391C90.75 13.8828 90.4961 14.4062 90.4961 15.1094C90.4961 16.1172 91.0742 16.6211 92.2305 16.6211C93.0586 16.6211 93.7188 16.3828 94.2109 15.9062C94.7109 15.4297 94.9609 14.7969 94.9609 14.0078V12.9297ZM111.344 15.1094C111.344 16.4531 110.875 17.4766 109.938 18.1797C109.008 18.8828 107.613 19.2344 105.754 19.2344C104.801 19.2344 103.988 19.168 103.316 19.0352C102.645 18.9102 102.016 18.7227 101.43 18.4727V15.5195C102.094 15.832 102.84 16.0938 103.668 16.3047C104.504 16.5156 105.238 16.6211 105.871 16.6211C107.168 16.6211 107.816 16.2461 107.816 15.4961C107.816 15.2148 107.73 14.9883 107.559 14.8164C107.387 14.6367 107.09 14.4375 106.668 14.2188C106.246 13.9922 105.684 13.7305 104.98 13.4336C103.973 13.0117 103.23 12.6211 102.754 12.2617C102.285 11.9023 101.941 11.4922 101.723 11.0312C101.512 10.5625 101.406 9.98828 101.406 9.30859C101.406 8.14453 101.855 7.24609 102.754 6.61328C103.66 5.97266 104.941 5.65234 106.598 5.65234C108.176 5.65234 109.711 5.99609 111.203 6.68359L110.125 9.26172C109.469 8.98047 108.855 8.75 108.285 8.57031C107.715 8.39062 107.133 8.30078 106.539 8.30078C105.484 8.30078 104.957 8.58594 104.957 9.15625C104.957 9.47656 105.125 9.75391 105.461 9.98828C105.805 10.2227 106.551 10.5703 107.699 11.0312C108.723 11.4453 109.473 11.832 109.949 12.1914C110.426 12.5508 110.777 12.9648 111.004 13.4336C111.23 13.9023 111.344 14.4609 111.344 15.1094ZM119.652 16.3867C120.277 16.3867 121.027 16.25 121.902 15.9766V18.6367C121.012 19.0352 119.918 19.2344 118.621 19.2344C117.191 19.2344 116.148 18.875 115.492 18.1562C114.844 17.4297 114.52 16.3438 114.52 14.8984V8.58203H112.809V7.07031L114.777 5.875L115.809 3.10938H118.094V5.89844H121.762V8.58203H118.094V14.8984C118.094 15.4062 118.234 15.7812 118.516 16.0234C118.805 16.2656 119.184 16.3867 119.652 16.3867ZM129.988 8.19531C129.23 8.19531 128.637 8.4375 128.207 8.92188C127.777 9.39844 127.531 10.0781 127.469 10.9609H132.484C132.469 10.0781 132.238 9.39844 131.793 8.92188C131.348 8.4375 130.746 8.19531 129.988 8.19531ZM130.492 19.2344C128.383 19.2344 126.734 18.6523 125.547 17.4883C124.359 16.3242 123.766 14.6758 123.766 12.543C123.766 10.3477 124.312 8.65234 125.406 7.45703C126.508 6.25391 128.027 5.65234 129.965 5.65234C131.816 5.65234 133.258 6.17969 134.289 7.23438C135.32 8.28906 135.836 9.74609 135.836 11.6055V13.3398H127.387C127.426 14.3555 127.727 15.1484 128.289 15.7188C128.852 16.2891 129.641 16.5742 130.656 16.5742C131.445 16.5742 132.191 16.4922 132.895 16.3281C133.598 16.1641 134.332 15.9023 135.098 15.543V18.3086C134.473 18.6211 133.805 18.8516 133.094 19C132.383 19.1562 131.516 19.2344 130.492 19.2344ZM146.055 5.65234C146.539 5.65234 146.941 5.6875 147.262 5.75781L146.992 9.10938C146.703 9.03125 146.352 8.99219 145.938 8.99219C144.797 8.99219 143.906 9.28516 143.266 9.87109C142.633 10.457 142.316 11.2773 142.316 12.332V19H138.742V5.89844H141.449L141.977 8.10156H142.152C142.559 7.36719 143.105 6.77734 143.793 6.33203C144.488 5.87891 145.242 5.65234 146.055 5.65234ZM149.137 17.3242C149.137 16.668 149.312 16.1719 149.664 15.8359C150.016 15.5 150.527 15.332 151.199 15.332C151.848 15.332 152.348 15.5039 152.699 15.8477C153.059 16.1914 153.238 16.6836 153.238 17.3242C153.238 17.9414 153.059 18.4297 152.699 18.7891C152.34 19.1406 151.84 19.3164 151.199 19.3164C150.543 19.3164 150.035 19.1445 149.676 18.8008C149.316 18.4492 149.137 17.957 149.137 17.3242Z" fill="#111111"/>
</svg>
