<svg width="17" height="10" viewBox="0 0 17 10" fill="none" xmlns="http://www.w3.org/2000/svg">
<path d="M4.675 5C5.84667 5 6.8 4.06536 6.8 2.91667C6.8 1.76797 5.84667 0.833333 4.675 0.833333C3.50333 0.833333 2.55 1.76797 2.55 2.91667C2.55 4.06536 3.50333 5 4.675 5ZM14.025 1.66667H8.075C7.84019 1.66667 7.65 1.85312 7.65 2.08333V5.83333H1.7V0.416667C1.7 0.186458 1.50981 0 1.275 0H0.425C0.190187 0 0 0.186458 0 0.416667V9.58333C0 9.81354 0.190187 10 0.425 10H1.275C1.50981 10 1.7 9.81354 1.7 9.58333V8.33333H15.3V9.58333C15.3 9.81354 15.4902 10 15.725 10H16.575C16.8098 10 17 9.81354 17 9.58333V4.58333C17 2.9724 15.6682 1.66667 14.025 1.66667Z" fill="white"/>
</svg>
