<svg width="35" height="29" viewBox="0 0 35 29" fill="none" xmlns="http://www.w3.org/2000/svg">
<g clip-path="url(#clip0)">
<path fill-rule="evenodd" clip-rule="evenodd" d="M17.6427 7.30237L12.2737 21.8489H6.41372C7.56878 18.7146 8.72383 15.5823 9.87889 12.4518C6.85043 11.8234 1.14745 10.0429 0 6.95616C4.6269 8.94322 10.3898 7.4362 16.0957 5.62952C16.3201 5.54016 16.5656 5.5211 16.8007 5.5748C17.0358 5.6285 17.2498 5.75249 17.4153 5.93092C17.5809 6.10934 17.6904 6.33407 17.7299 6.57632C17.7694 6.81858 17.7371 7.06733 17.637 7.29073L17.6427 7.30237Z" fill="white"/>
<path fill-rule="evenodd" clip-rule="evenodd" d="M26.2686 4.52108L19.8748 21.8606H14.0206L20.5285 4.21269L24.7186 2.85985C24.9434 2.76945 25.1896 2.74952 25.4255 2.80263C25.6615 2.85574 25.8765 2.97947 26.043 3.15794C26.2095 3.33642 26.32 3.56151 26.3601 3.80438C26.4003 4.04724 26.3684 4.29681 26.2686 4.52108Z" fill="white"/>
<path fill-rule="evenodd" clip-rule="evenodd" d="M34.9001 1.73686C33.0562 6.72342 30.3331 14.0869 28.8746 18.0144C27.9298 20.5805 25.2267 26.6726 28.6805 29C20.9909 28.2785 20.7854 24.1706 21.5075 22.1137L29.16 1.42848L33.3416 0.0756508C33.5664 -0.0147557 33.8125 -0.0346881 34.0485 0.0184199C34.2844 0.071528 34.4995 0.195252 34.666 0.373729C34.8325 0.552206 34.9429 0.777301 34.9831 1.02016C35.0233 1.26303 34.9914 1.51259 34.8915 1.73686H34.9001Z" fill="white"/>
</g>
<defs>
<clipPath id="clip0">
<rect width="35" height="29" fill="white"/>
</clipPath>
</defs>
</svg>
