<svg width="145" height="93" viewBox="0 0 145 93" fill="none" xmlns="http://www.w3.org/2000/svg">
<path d="M15.7734 86H12.9609V78.2773H5.0625V86H2.26172V68.8672H5.0625V75.875H12.9609V68.8672H15.7734V86ZM31.4883 79.4961C31.4883 81.6133 30.9453 83.2656 29.8594 84.4531C28.7734 85.6406 27.2617 86.2344 25.3242 86.2344C24.1133 86.2344 23.043 85.9609 22.1133 85.4141C21.1836 84.8672 20.4688 84.082 19.9688 83.0586C19.4688 82.0352 19.2188 80.8477 19.2188 79.4961C19.2188 77.3945 19.7578 75.7539 20.8359 74.5742C21.9141 73.3945 23.4336 72.8047 25.3945 72.8047C27.2695 72.8047 28.7539 73.4102 29.8477 74.6211C30.9414 75.8242 31.4883 77.4492 31.4883 79.4961ZM22.0547 79.4961C22.0547 82.4883 23.1602 83.9844 25.3711 83.9844C27.5586 83.9844 28.6523 82.4883 28.6523 79.4961C28.6523 76.5352 27.5508 75.0547 25.3477 75.0547C24.1914 75.0547 23.3516 75.4375 22.8281 76.2031C22.3125 76.9688 22.0547 78.0664 22.0547 79.4961ZM39.4922 84.0078C40.1641 84.0078 40.8359 83.9023 41.5078 83.6914V85.7656C41.2031 85.8984 40.8086 86.0078 40.3242 86.0938C39.8477 86.1875 39.3516 86.2344 38.8359 86.2344C36.2266 86.2344 34.9219 84.8594 34.9219 82.1094V75.125H33.1523V73.9062L35.0508 72.8984L35.9883 70.1562H37.6875V73.0391H41.3789V75.125H37.6875V82.0625C37.6875 82.7266 37.8516 83.2188 38.1797 83.5391C38.5156 83.8516 38.9531 84.0078 39.4922 84.0078ZM49.7695 86.2344C47.7539 86.2344 46.1758 85.6484 45.0352 84.4766C43.9023 83.2969 43.3359 81.6758 43.3359 79.6133C43.3359 77.4961 43.8633 75.832 44.918 74.6211C45.9727 73.4102 47.4219 72.8047 49.2656 72.8047C50.9766 72.8047 52.3281 73.3242 53.3203 74.3633C54.3125 75.4023 54.8086 76.832 54.8086 78.6523V80.1406H46.1719C46.2109 81.3984 46.5508 82.3672 47.1914 83.0469C47.832 83.7188 48.7344 84.0547 49.8984 84.0547C50.6641 84.0547 51.375 83.9844 52.0312 83.8438C52.6953 83.6953 53.4062 83.4531 54.1641 83.1172V85.3555C53.4922 85.6758 52.8125 85.9023 52.125 86.0352C51.4375 86.168 50.6523 86.2344 49.7695 86.2344ZM49.2656 74.8906C48.3906 74.8906 47.6875 75.168 47.1562 75.7227C46.6328 76.2773 46.3203 77.0859 46.2188 78.1484H52.1016C52.0859 77.0781 51.8281 76.2695 51.3281 75.7227C50.8281 75.168 50.1406 74.8906 49.2656 74.8906ZM60.6914 86H57.9375V67.7656H60.6914V86ZM72.3398 86L67.3711 71.6914H67.2773C67.4102 73.8164 67.4766 75.8086 67.4766 77.668V86H64.9336V68.8672H68.8828L73.6406 82.4961H73.7109L78.6094 68.8672H82.5703V86H79.875V77.5273C79.875 76.6758 79.8945 75.5664 79.9336 74.1992C79.9805 72.832 80.0195 72.0039 80.0508 71.7148H79.957L74.8125 86H72.3398ZM94.8984 86L94.3477 84.1953H94.2539C93.6289 84.9844 93 85.5234 92.3672 85.8125C91.7344 86.0938 90.9219 86.2344 89.9297 86.2344C88.6562 86.2344 87.6602 85.8906 86.9414 85.2031C86.2305 84.5156 85.875 83.543 85.875 82.2852C85.875 80.9492 86.3711 79.9414 87.3633 79.2617C88.3555 78.582 89.8672 78.2109 91.8984 78.1484L94.1367 78.0781V77.3867C94.1367 76.5586 93.9414 75.9414 93.5508 75.5352C93.168 75.1211 92.5703 74.9141 91.7578 74.9141C91.0938 74.9141 90.457 75.0117 89.8477 75.207C89.2383 75.4023 88.6523 75.6328 88.0898 75.8984L87.1992 73.9297C87.9023 73.5625 88.6719 73.2852 89.5078 73.0977C90.3438 72.9023 91.1328 72.8047 91.875 72.8047C93.5234 72.8047 94.7656 73.1641 95.6016 73.8828C96.4453 74.6016 96.8672 75.7305 96.8672 77.2695V86H94.8984ZM90.7969 84.125C91.7969 84.125 92.5977 83.8477 93.1992 83.293C93.8086 82.7305 94.1133 81.9453 94.1133 80.9375V79.8125L92.4492 79.8828C91.1523 79.9297 90.207 80.1484 89.6133 80.5391C89.0273 80.9219 88.7344 81.5117 88.7344 82.3086C88.7344 82.8867 88.9062 83.3359 89.25 83.6562C89.5938 83.9688 90.1094 84.125 90.7969 84.125ZM109.418 82.3086C109.418 83.5742 108.957 84.5469 108.035 85.2266C107.113 85.8984 105.793 86.2344 104.074 86.2344C102.348 86.2344 100.961 85.9727 99.9141 85.4492V83.0703C101.438 83.7734 102.855 84.125 104.168 84.125C105.863 84.125 106.711 83.6133 106.711 82.5898C106.711 82.2617 106.617 81.9883 106.43 81.7695C106.242 81.5508 105.934 81.3242 105.504 81.0898C105.074 80.8555 104.477 80.5898 103.711 80.293C102.219 79.7148 101.207 79.1367 100.676 78.5586C100.152 77.9805 99.8906 77.2305 99.8906 76.3086C99.8906 75.1992 100.336 74.3398 101.227 73.7305C102.125 73.1133 103.344 72.8047 104.883 72.8047C106.406 72.8047 107.848 73.1133 109.207 73.7305L108.316 75.8047C106.918 75.2266 105.742 74.9375 104.789 74.9375C103.336 74.9375 102.609 75.3516 102.609 76.1797C102.609 76.5859 102.797 76.9297 103.172 77.2109C103.555 77.4922 104.383 77.8789 105.656 78.3711C106.727 78.7852 107.504 79.1641 107.988 79.5078C108.473 79.8516 108.832 80.25 109.066 80.7031C109.301 81.1484 109.418 81.6836 109.418 82.3086ZM117.234 84.0078C117.906 84.0078 118.578 83.9023 119.25 83.6914V85.7656C118.945 85.8984 118.551 86.0078 118.066 86.0938C117.59 86.1875 117.094 86.2344 116.578 86.2344C113.969 86.2344 112.664 84.8594 112.664 82.1094V75.125H110.895V73.9062L112.793 72.8984L113.73 70.1562H115.43V73.0391H119.121V75.125H115.43V82.0625C115.43 82.7266 115.594 83.2188 115.922 83.5391C116.258 83.8516 116.695 84.0078 117.234 84.0078ZM127.512 86.2344C125.496 86.2344 123.918 85.6484 122.777 84.4766C121.645 83.2969 121.078 81.6758 121.078 79.6133C121.078 77.4961 121.605 75.832 122.66 74.6211C123.715 73.4102 125.164 72.8047 127.008 72.8047C128.719 72.8047 130.07 73.3242 131.062 74.3633C132.055 75.4023 132.551 76.832 132.551 78.6523V80.1406H123.914C123.953 81.3984 124.293 82.3672 124.934 83.0469C125.574 83.7188 126.477 84.0547 127.641 84.0547C128.406 84.0547 129.117 83.9844 129.773 83.8438C130.438 83.6953 131.148 83.4531 131.906 83.1172V85.3555C131.234 85.6758 130.555 85.9023 129.867 86.0352C129.18 86.168 128.395 86.2344 127.512 86.2344ZM127.008 74.8906C126.133 74.8906 125.43 75.168 124.898 75.7227C124.375 76.2773 124.062 77.0859 123.961 78.1484H129.844C129.828 77.0781 129.57 76.2695 129.07 75.7227C128.57 75.168 127.883 74.8906 127.008 74.8906ZM142.254 72.8047C142.809 72.8047 143.266 72.8438 143.625 72.9219L143.355 75.4883C142.965 75.3945 142.559 75.3477 142.137 75.3477C141.035 75.3477 140.141 75.707 139.453 76.4258C138.773 77.1445 138.434 78.0781 138.434 79.2266V86H135.68V73.0391H137.836L138.199 75.3242H138.34C138.77 74.5508 139.328 73.9375 140.016 73.4844C140.711 73.0312 141.457 72.8047 142.254 72.8047Z" fill="white"/>
<g clip-path="url(#clip0)">
<path fill-rule="evenodd" clip-rule="evenodd" d="M72.3017 15.1083L60.9501 45.2047H48.5604C51.0026 38.7199 53.4447 32.2392 55.8868 25.7624C49.4838 24.4623 37.426 20.7785 35 14.3921C44.7826 18.5032 56.967 15.3852 69.0308 11.6473C69.5053 11.4624 70.0243 11.423 70.5214 11.5341C71.0185 11.6452 71.471 11.9017 71.821 12.2709C72.171 12.64 72.4026 13.105 72.4861 13.6062C72.5696 14.1074 72.5012 14.6221 72.2897 15.0843L72.3017 15.1083Z" fill="white"/>
<path fill-rule="evenodd" clip-rule="evenodd" d="M90.5392 9.35394L77.021 45.2287H64.6434L78.403 8.7159L87.2623 5.91693C87.7375 5.72988 88.2579 5.68866 88.7568 5.79854C89.2556 5.90842 89.7103 6.1644 90.0623 6.53366C90.4144 6.90293 90.6479 7.36864 90.7328 7.87112C90.8178 8.37359 90.7504 8.88994 90.5392 9.35394Z" fill="white"/>
<path fill-rule="evenodd" clip-rule="evenodd" d="M108.789 3.5935C104.89 13.9105 99.1329 29.1453 96.0491 37.2713C94.0516 42.5802 88.3365 55.1846 95.6387 60C79.3807 58.5072 78.9462 50.008 80.473 45.7524L96.6526 2.95546L105.494 0.156507C105.969 -0.030541 106.489 -0.0717806 106.988 0.0380981C107.487 0.147977 107.942 0.403958 108.294 0.77322C108.646 1.14248 108.879 1.6082 108.964 2.11067C109.049 2.61315 108.982 3.12949 108.771 3.5935H108.789Z" fill="white"/>
</g>
<defs>
<clipPath id="clip0">
<rect width="74" height="60" fill="white" transform="translate(35)"/>
</clipPath>
</defs>
</svg>
